<svg width="400" height="120" viewBox="0 0 400 120" fill="none" xmlns="http://www.w3.org/2000/svg">
  <!-- Background -->
  <rect width="400" height="120" fill="#f8fafc"/>

  <!-- Label -->
  <text x="200" y="25" font-family="system-ui, -apple-system, sans-serif" font-size="14" fill="#64748b" text-anchor="middle">Widget Controls</text>

  <!-- Add Feedback Button (Blue) -->
  <circle cx="60" cy="70" r="28" fill="#3b82f6" filter="drop-shadow(0 4px 6px rgba(0,0,0,0.1))"/>
  <path d="M52 64h16M52 70h8m1 12l-4-4h-5a2 2 0 01-2-2v-10a2 2 0 012-2h14a2 2 0 012 2v10a2 2 0 01-2 2h-3l-4 4z" stroke="white" stroke-width="2" fill="none" transform="translate(8, 8)"/>
  <text x="60" y="110" font-family="system-ui, -apple-system, sans-serif" font-size="11" fill="#64748b" text-anchor="middle">Pin Feedback</text>

  <!-- Rounds Button (Green) -->
  <circle cx="140" cy="70" r="28" fill="#22c55e" filter="drop-shadow(0 4px 6px rgba(0,0,0,0.1))"/>
  <path d="M136 54h-2a2 2 0 00-2 2v12a2 2 0 002 2h10a2 2 0 002-2v-12a2 2 0 00-2-2h-2m-6 0a2 2 0 002 2h2a2 2 0 002-2m-6 0a2 2 0 012-2h2a2 2 0 012 2m-6 9l2 2 4-4" stroke="white" stroke-width="2" fill="none" transform="translate(4, 8)"/>
  <text x="140" y="110" font-family="system-ui, -apple-system, sans-serif" font-size="11" fill="#64748b" text-anchor="middle">Rounds</text>

  <!-- General Feedback Button (Purple) -->
  <circle cx="220" cy="70" r="28" fill="#8b5cf6" filter="drop-shadow(0 4px 6px rgba(0,0,0,0.1))"/>
  <rect x="204" y="54" width="32" height="32" rx="4" stroke="white" stroke-width="2" fill="none"/>
  <line x1="210" y1="62" x2="230" y2="62" stroke="white" stroke-width="2"/>
  <line x1="210" y1="70" x2="230" y2="70" stroke="white" stroke-width="2"/>
  <line x1="210" y1="78" x2="222" y2="78" stroke="white" stroke-width="2"/>
  <text x="220" y="110" font-family="system-ui, -apple-system, sans-serif" font-size="11" fill="#64748b" text-anchor="middle">General</text>

  <!-- View All Button (Gray) -->
  <circle cx="300" cy="70" r="28" fill="#6b7280" filter="drop-shadow(0 4px 6px rgba(0,0,0,0.1))"/>
  <line x1="284" y1="58" x2="316" y2="58" stroke="white" stroke-width="2"/>
  <line x1="284" y1="66" x2="316" y2="66" stroke="white" stroke-width="2"/>
  <line x1="284" y1="74" x2="316" y2="74" stroke="white" stroke-width="2"/>
  <line x1="284" y1="82" x2="316" y2="82" stroke="white" stroke-width="2"/>
  <text x="300" y="110" font-family="system-ui, -apple-system, sans-serif" font-size="11" fill="#64748b" text-anchor="middle">View All</text>
</svg>