<svg width="480" height="140" viewBox="0 0 480 140" fill="none" xmlns="http://www.w3.org/2000/svg">
  <!-- Background -->
  <rect width="480" height="140" fill="#f8fafc"/>

  <!-- Label -->
  <text x="240" y="28" font-family="system-ui, -apple-system, sans-serif" font-size="16" fill="#64748b" text-anchor="middle">Widget Controls</text>

  <!-- Add Feedback Button (Blue) -->
  <circle cx="70" cy="75" r="32" fill="#3b82f6" filter="drop-shadow(0 4px 6px rgba(0,0,0,0.1))"/>
  <g transform="translate(70, 75)">
    <path d="M-10 -6h12M-10 0h6m2 10l-5-5h-4a2 2 0 01-2-2v-10a2 2 0 012-2h14a2 2 0 012 2v10a2 2 0 01-2 2h-3l-5 5z" stroke="white" stroke-width="2" fill="none" stroke-linecap="round" stroke-linejoin="round"/>
  </g>
  <text x="70" y="125" font-family="system-ui, -apple-system, sans-serif" font-size="12" fill="#64748b" text-anchor="middle">Pin Feedback</text>

  <!-- Rounds Button (Green) -->
  <circle cx="180" cy="75" r="32" fill="#22c55e" filter="drop-shadow(0 4px 6px rgba(0,0,0,0.1))"/>
  <g transform="translate(180, 75)">
    <rect x="-10" y="-12" width="20" height="24" rx="2" stroke="white" stroke-width="2" fill="none"/>
    <path d="M-6 -12v-3a4 4 0 018 0v3" stroke="white" stroke-width="2" fill="none"/>
    <path d="M-5 2l3 3 6-6" stroke="white" stroke-width="2" fill="none" stroke-linecap="round" stroke-linejoin="round"/>
  </g>
  <text x="180" y="125" font-family="system-ui, -apple-system, sans-serif" font-size="12" fill="#64748b" text-anchor="middle">Rounds</text>

  <!-- General Feedback Button (Purple) -->
  <circle cx="290" cy="75" r="32" fill="#8b5cf6" filter="drop-shadow(0 4px 6px rgba(0,0,0,0.1))"/>
  <g transform="translate(290, 75)">
    <rect x="-11" y="-11" width="22" height="22" rx="3" stroke="white" stroke-width="2" fill="none"/>
    <line x1="-6" y1="-5" x2="6" y2="-5" stroke="white" stroke-width="2" stroke-linecap="round"/>
    <line x1="-6" y1="0" x2="6" y2="0" stroke="white" stroke-width="2" stroke-linecap="round"/>
    <line x1="-6" y1="5" x2="2" y2="5" stroke="white" stroke-width="2" stroke-linecap="round"/>
  </g>
  <text x="290" y="125" font-family="system-ui, -apple-system, sans-serif" font-size="12" fill="#64748b" text-anchor="middle">General</text>

  <!-- View All Button (Gray) -->
  <circle cx="400" cy="75" r="32" fill="#6b7280" filter="drop-shadow(0 4px 6px rgba(0,0,0,0.1))"/>
  <g transform="translate(400, 75)">
    <line x1="-10" y1="-8" x2="10" y2="-8" stroke="white" stroke-width="2" stroke-linecap="round"/>
    <line x1="-10" y1="-2" x2="10" y2="-2" stroke="white" stroke-width="2" stroke-linecap="round"/>
    <line x1="-10" y1="4" x2="10" y2="4" stroke="white" stroke-width="2" stroke-linecap="round"/>
    <line x1="-10" y1="10" x2="10" y2="10" stroke="white" stroke-width="2" stroke-linecap="round"/>
  </g>
  <text x="400" y="125" font-family="system-ui, -apple-system, sans-serif" font-size="12" fill="#64748b" text-anchor="middle">View All</text>
</svg>